<?xml version="1.0" standalone="no"?>
<!DOCTYPE svg PUBLIC "-//W3C//DTD SVG 20010904//EN"
 "http://www.w3.org/TR/2001/REC-SVG-20010904/DTD/svg10.dtd">
<svg version="1.0" xmlns="http://www.w3.org/2000/svg"
 width="150.000000pt" height="100.000000pt" viewBox="0 0 707.000000 353.000000"
 preserveAspectRatio="xMidYMid meet">

<g transform="translate(0.000000,353.000000) scale(0.100000,-0.100000)"
fill="#000000" stroke="none">
<path d="M6000 2919 c0 -6 -7 -8 -16 -5 -8 3 -43 -9 -77 -26 -34 -18 -69 -33
-77 -33 -8 0 -39 -13 -69 -29 -39 -20 -56 -24 -61 -16 -5 9 -11 7 -21 -6 -17
-22 -53 -44 -73 -44 -7 0 -39 -15 -70 -34 -77 -47 -233 -114 -292 -126 -136
-29 -238 -42 -319 -41 -175 2 -400 58 -500 123 -22 14 -60 29 -85 33 -25 4
-61 13 -80 20 -19 7 -89 15 -156 19 -104 7 -133 5 -208 -13 -48 -12 -98 -21
-111 -21 -24 0 -120 -42 -167 -74 l-28 -18 0 -553 c0 -304 3 -572 6 -597 5
-36 13 -49 40 -67 41 -28 146 -130 194 -188 52 -64 66 -54 29 20 l-31 62 73
-73 c40 -39 78 -72 85 -72 7 0 25 -17 41 -39 49 -67 98 -115 135 -136 21 -10
40 -17 43 -13 9 9 -35 78 -50 78 -7 0 -17 6 -23 13 -9 10 -4 12 23 9 24 -3 47
-17 75 -45 44 -46 60 -44 37 2 -12 24 -13 31 -2 31 7 0 18 -7 25 -15 9 -11 16
-13 23 -6 7 7 3 19 -13 36 -23 24 -23 26 -5 39 19 13 13 36 -9 36 -7 0 -21 9
-31 20 -28 31 5 26 39 -5 15 -14 29 -25 32 -25 2 0 4 36 4 81 l0 81 29 -7 c18
-4 32 -2 36 5 5 8 22 10 52 5 32 -5 54 -2 79 10 19 9 38 14 43 11 5 -3 52 -8
105 -11 79 -4 97 -2 104 11 8 14 14 14 68 0 66 -17 107 -12 102 13 -2 10 -23
21 -60 30 -47 12 -59 20 -69 43 -6 16 -10 31 -7 33 2 3 62 6 132 6 69 1 129 6
132 10 3 5 -9 9 -25 9 -17 0 -31 5 -31 10 0 6 12 10 26 10 30 0 98 17 131 33
17 7 30 7 49 -2 31 -14 42 -8 25 13 -13 15 4 26 40 26 10 0 19 4 19 9 0 5 12
11 27 13 14 2 29 9 31 17 3 10 -1 12 -17 8 -11 -3 -23 -1 -26 3 -3 4 -23 6
-45 3 -33 -5 -39 -3 -35 9 6 16 46 17 98 3 15 -4 33 -3 40 3 6 6 29 13 50 17
22 4 37 13 37 21 0 11 14 14 60 12 65 -2 85 7 57 27 -10 7 -15 19 -11 28 4 12
0 16 -18 15 -71 -4 -128 3 -128 16 0 13 68 36 109 36 12 0 21 6 21 13 0 9 18
13 56 14 95 2 97 29 4 40 -64 7 -75 23 -16 23 42 0 79 20 39 20 -20 1 -75 29
-56 30 6 0 27 14 45 30 18 17 41 33 50 36 10 3 18 10 18 15 0 15 51 59 85 73
36 15 59 41 50 56 -5 8 -11 8 -20 0 -8 -7 -23 -9 -34 -5 -11 3 -34 -1 -50 -9
-47 -25 -49 -19 -3 15 23 17 42 35 42 40 0 5 12 9 26 9 34 0 22 17 -18 26 -18
3 -40 11 -50 17 -14 9 -22 7 -41 -11 -25 -24 -47 -29 -47 -11 0 6 9 13 19 16
11 3 22 14 24 25 4 15 11 18 26 13 25 -8 42 22 20 35 -9 6 -4 13 20 27 19 10
56 33 84 52 27 18 65 40 84 47 43 18 34 35 -14 27 -26 -4 -34 -3 -29 5 4 7 15
12 25 12 10 0 29 8 42 18 13 11 38 22 54 26 33 8 105 52 105 64 0 4 -11 12
-25 19 -19 9 -37 8 -77 -3 -51 -13 -80 -11 -42 3 10 3 31 15 45 26 14 10 46
23 70 28 24 6 46 14 49 18 6 9 44 31 102 58 75 36 26 46 -69 14 -59 -19 -172
-23 -221 -7 -14 5 -29 3 -37 -4 -9 -8 -15 -8 -15 -2 0 16 67 71 95 78 14 3 25
10 25 14 0 4 9 10 21 13 16 4 19 11 14 26 -4 12 -2 21 4 21 8 0 7 7 -1 20 -14
21 -38 27 -38 9z m-2360 -1450 c0 -6 -4 -7 -10 -4 -5 3 -10 11 -10 16 0 6 5 7
10 4 6 -3 10 -11 10 -16z"/>
<path d="M882 2860 c-8 -13 -9 -20 -1 -20 6 0 8 -9 4 -21 -5 -15 -2 -22 14
-26 12 -3 21 -9 21 -13 0 -4 10 -11 23 -14 12 -3 39 -22 61 -41 l38 -35 109 0
109 0 0 -155 0 -155 -115 0 c-96 0 -115 3 -115 15 0 10 -10 15 -30 15 -16 0
-30 -4 -30 -10 0 -5 7 -10 15 -10 15 0 95 -46 105 -60 3 -4 29 -19 57 -35 43
-23 50 -30 38 -39 -19 -14 -7 -33 25 -37 14 -2 23 -8 20 -12 -3 -5 7 -15 23
-23 15 -8 27 -19 27 -25 0 -13 -42 9 -53 27 -10 18 -25 18 -44 -1 -8 -8 -18
-13 -23 -10 -12 7 -60 -13 -60 -25 0 -6 10 -8 23 -6 16 4 29 -4 52 -31 24 -30
26 -35 10 -29 -11 4 -39 9 -62 11 -54 4 -58 -16 -10 -45 26 -16 50 -20 134
-20 57 0 102 3 102 8 -1 4 -1 51 0 105 l1 99 48 -3 c74 -4 72 -1 72 -110 l0
-99 110 0 110 0 0 65 0 65 -54 0 -54 0 1 43 c0 23 0 68 -1 101 l-2 59 -140 -8
-140 -7 0 180 c0 138 -3 182 -13 191 -8 6 -16 8 -20 5 -3 -3 -11 4 -17 16 -8
15 -17 19 -31 15 -12 -4 -36 3 -64 19 -24 14 -50 26 -59 26 -8 0 -44 16 -79
35 -36 20 -71 33 -80 30 -8 -4 -18 -2 -22 4 -9 16 -19 13 -33 -9z"/>
<path d="M2940 2681 l0 -82 112 3 112 3 -3 70 c-1 38 -3 71 -4 71 -1 1 -50 5
-109 9 l-108 7 0 -81z"/>
<path d="M3230 2545 l0 -185 54 0 55 0 3 48 3 47 58 3 57 3 0 -114 0 -113
-225 4 -225 5 0 -122 0 -121 60 0 60 0 0 55 0 55 65 0 65 0 0 -56 0 -55 105 7
105 7 0 -152 0 -151 -60 0 -60 0 0 95 0 95 -170 0 -170 0 0 -66 c0 -65 0 -66
28 -64 15 1 66 2 115 1 l87 -1 0 -90 0 -90 114 0 114 0 4 -55 c7 -79 25 -93
30 -22 1 20 6 37 10 37 4 0 8 241 8 535 l0 534 -30 16 -30 16 0 -45 c0 -43 -2
-45 -32 -51 -18 -3 -44 -4 -58 -2 -24 4 -25 8 -30 83 -5 78 -5 79 -35 85 -16
4 -40 7 -52 8 l-23 1 0 -185z"/>
<path d="M656 2712 c-4 -7 8 -15 29 -21 19 -5 47 -19 61 -30 15 -12 33 -21 40
-21 8 0 14 -4 14 -10 0 -5 27 -18 61 -27 34 -9 63 -23 66 -30 3 -7 13 -13 23
-13 11 0 22 -4 25 -10 8 -13 1 -12 -60 3 -49 12 -95 5 -95 -16 0 -11 91 -67
109 -67 9 0 27 -9 41 -20 14 -11 33 -20 43 -20 16 0 17 11 15 133 l-3 132 -25
-2 c-150 -14 -190 -14 -219 2 -40 20 -116 31 -125 17z"/>
<path d="M2660 2699 c-30 -11 -67 -24 -81 -28 -41 -14 -69 -35 -69 -52 0 -10
-11 -20 -25 -23 -24 -6 -25 -8 -25 -101 l0 -95 50 0 50 0 0 75 0 75 55 0 55 0
0 -105 0 -105 243 0 c134 0 246 2 248 4 2 2 2 34 1 70 l-4 66 -109 0 -109 0 0
-30 c0 -21 -5 -30 -17 -31 -10 -1 -28 -3 -40 -4 -23 -2 -23 -1 -23 116 0 88
-3 119 -12 120 -7 1 -31 2 -53 3 -38 1 -40 3 -43 34 -4 38 -13 39 -92 11z"/>
<path d="M1430 2625 c0 -10 10 -15 33 -15 l32 1 -25 14 c-32 18 -40 18 -40 0z"/>
<path d="M1123 2623 c-22 -4 -23 -9 -23 -94 l0 -89 45 0 45 0 0 95 c0 104 2
101 -67 88z"/>
<path d="M2315 2550 l-50 -17 -3 -66 -3 -67 58 0 58 0 -3 62 c-5 116 0 107
-57 88z"/>
<path d="M1430 2510 l0 -30 75 0 75 0 0 30 0 30 -75 0 -75 0 0 -30z"/>
<path d="M1690 2491 l0 -49 40 -4 40 -4 0 43 c0 37 -4 45 -26 53 -48 18 -54
14 -54 -39z"/>
<path d="M2122 2513 c-20 -4 -23 -10 -20 -40 3 -34 5 -36 41 -37 l37 -1 0 43
c0 44 -2 46 -58 35z"/>
<path d="M1890 2335 l0 -165 65 0 65 0 0 165 0 165 -65 0 -65 0 0 -165z"/>
<path d="M1690 2295 l0 -75 35 0 35 0 0 75 0 75 -35 0 -35 0 0 -75z"/>
<path d="M7050 2310 c0 -5 5 -10 11 -10 5 0 7 5 4 10 -3 6 -8 10 -11 10 -2 0
-4 -4 -4 -10z"/>
<path d="M2100 2230 l0 -80 40 0 c38 0 40 2 40 30 0 28 2 30 40 30 38 0 40 -2
40 -30 0 -29 1 -30 50 -30 49 0 50 1 50 30 0 28 2 30 40 30 l40 0 0 -50 0 -50
-90 0 -90 0 0 -155 0 -155 50 0 50 0 0 105 0 105 105 0 105 0 0 150 0 150
-235 0 -235 0 0 -80z"/>
<path d="M2660 2055 l0 -175 49 0 50 0 3 -52 3 -53 63 -2 62 -3 0 125 0 125
-50 0 -50 0 0 40 0 40 50 0 50 0 0 65 0 65 -115 0 -115 0 0 -175z"/>
<path d="M2110 2045 l0 -25 -115 0 -115 0 0 -80 0 -80 -60 0 c-57 0 -60 1 -60
25 0 25 -1 25 -80 25 l-80 0 0 -55 c0 -54 0 -55 30 -55 28 0 30 -3 30 -35 l0
-35 -67 -1 c-38 -1 -76 0 -86 1 -11 1 -21 -7 -24 -19 -5 -19 -12 -21 -75 -18
-74 3 -96 -7 -54 -23 32 -12 34 -19 4 -13 -25 4 -57 -12 -46 -23 4 -4 33 -8
64 -9 39 -1 59 -6 65 -17 5 -9 26 -19 46 -23 46 -8 64 -21 56 -41 -3 -8 1 -14
8 -15 32 -2 54 -9 57 -18 2 -6 19 -11 38 -11 38 0 42 -7 17 -26 -17 -12 -16
-13 4 -14 12 0 24 4 28 10 3 5 12 7 20 3 13 -4 15 14 15 121 l0 126 60 0 60 0
0 -130 0 -130 50 0 50 0 0 70 0 70 75 0 75 0 0 -70 0 -70 45 0 45 0 0 130 0
130 -45 0 c-43 0 -45 -1 -45 -30 l0 -30 -65 0 -65 0 0 30 c0 29 -1 30 -50 30
l-50 0 0 65 0 65 50 0 50 0 0 40 0 40 65 0 65 0 0 -40 0 -40 40 0 40 0 0 110
0 110 -35 0 c-31 0 -35 -3 -35 -25z m-443 -480 c2 -6 -20 -10 -53 -11 -47 0
-53 2 -39 12 20 15 87 14 92 -1z"/>
<path d="M1308 1898 c31 -16 27 -26 -13 -34 -65 -12 -33 -31 44 -26 45 2 7
-17 -48 -25 -63 -9 -78 -29 -26 -35 24 -3 35 0 35 9 0 10 24 13 95 13 l95 0 0
55 0 55 -102 -1 c-82 0 -98 -3 -80 -11z"/>
<path d="M2460 1740 l0 -100 105 0 105 0 0 100 0 100 -105 0 -105 0 0 -100z
m90 0 c0 -43 -3 -50 -20 -50 -17 0 -20 7 -20 50 0 43 3 50 20 50 17 0 20 -7
20 -50z"/>
<path d="M2740 1595 l0 -55 -185 0 -185 0 0 45 0 45 -55 0 -56 0 3 -87 3 -88
105 -2 c58 -1 153 -2 212 -2 l108 -1 2 -160 3 -161 47 33 48 33 0 148 0 147
170 0 170 0 0 80 0 80 -195 0 -195 0 0 -55z"/>
<path d="M3260 1435 l0 -105 70 0 70 0 0 105 0 105 -70 0 -70 0 0 -105z"/>
<path d="M2900 1293 c0 -60 4 -125 9 -146 5 -21 5 -39 0 -43 -18 -11 -9 -25
12 -19 15 5 19 4 15 -4 -4 -6 -14 -11 -22 -11 -10 0 -14 -11 -13 -37 0 -21 3
-32 6 -25 2 6 10 12 17 12 14 0 69 57 111 113 22 30 34 37 61 37 l34 0 0 115
0 115 -115 0 -115 0 0 -107z"/>
<path d="M1910 1310 l0 -70 70 0 70 0 0 70 0 70 -70 0 -70 0 0 -70z"/>
<path d="M2250 1310 l0 -70 115 0 115 0 0 70 0 70 -115 0 -115 0 0 -70z"/>
<path d="M2510 1205 l0 -165 45 0 45 0 0 165 0 165 -45 0 -45 0 0 -165z"/>
<path d="M2773 1163 c-18 -7 -16 -33 2 -33 8 0 15 9 15 20 0 11 -1 20 -2 19
-2 0 -9 -3 -15 -6z"/>
<path d="M2767 1096 c-29 -44 -17 -64 16 -26 12 14 15 26 9 36 -7 13 -11 11
-25 -10z"/>
<path d="M2787 1030 c-3 -11 -1 -20 4 -20 5 0 9 9 9 20 0 11 -2 20 -4 20 -2 0
-6 -9 -9 -20z"/>
</g>
</svg>
