<svg version="1.0" xmlns="http://www.w3.org/2000/svg"
 width="60.000000pt" height="29.000000pt" viewBox="0 0 460.000000 329.000000"
 preserveAspectRatio="xMidYMid meet">

<g transform="translate(0.000000,329.000000) scale(0.100000,-0.100000)"
fill="#000000" stroke="none">
<path d="M164 3122 c-11 -7 -34 -46 -34 -57 0 -10 331 -355 341 -355 5 0 9 32
9 70 0 39 -4 70 -9 70 -11 0 -185 172 -235 233 -38 47 -51 54 -72 39z"/>
<path d="M3995 3030 c-47 -55 -91 -100 -96 -100 -6 0 -6 -6 0 -18 6 -10 7 -28
4 -40 -3 -12 -2 -29 1 -38 5 -13 33 11 121 102 63 65 115 127 115 136 0 19
-33 58 -49 58 -6 0 -49 -45 -96 -100z"/>
<path d="M3807 2856 c-15 -11 -17 -26 -15 -77 2 -34 8 -64 13 -65 6 -2 19 9
30 24 17 21 20 38 17 80 -4 54 -13 62 -45 38z"/>
<path d="M537 2803 c-4 -3 -7 -39 -7 -79 l0 -73 44 -35 c23 -20 46 -36 50 -36
4 0 5 41 4 91 l-3 91 -41 24 c-22 13 -44 21 -47 17z"/>
<path d="M3677 2779 c-37 -30 -37 -31 -37 -108 0 -43 3 -80 6 -83 3 -4 26 13
50 37 l45 43 -3 67 c-2 38 -8 70 -13 72 -6 2 -27 -11 -48 -28z"/>
<path d="M3990 2765 l0 -45 55 0 55 0 0 45 0 45 -55 0 -55 0 0 -45z"/>
<path d="M4130 2770 l0 -40 55 0 55 0 0 40 0 40 -55 0 -55 0 0 -40z"/>
<path d="M67 2793 c-4 -3 -7 -17 -7 -30 0 -20 5 -23 40 -23 38 0 40 2 40 30 0
27 -3 30 -33 30 -19 0 -37 -3 -40 -7z"/>
<path d="M190 2771 c0 -34 12 -45 40 -36 14 4 20 15 20 36 0 26 -3 29 -30 29
-27 0 -30 -3 -30 -29z"/>
<path d="M680 2623 l0 -98 106 -78 c59 -44 109 -87 111 -98 4 -14 14 -19 39
-19 l34 0 0 115 0 115 -35 0 -35 0 0 -51 c0 -43 -3 -50 -17 -47 -15 3 -18 16
-21 86 l-3 82 -34 0 -35 0 0 -55 c0 -48 -2 -55 -20 -55 -19 0 -20 7 -20 100
l0 100 -35 0 -35 0 0 -97z"/>
<path d="M3510 2625 c0 -78 -3 -95 -15 -95 -12 0 -15 13 -15 60 l0 60 -45 0
-45 0 0 -95 c0 -57 -4 -95 -10 -95 -5 0 -10 25 -10 55 l0 55 -35 0 -35 0 0
-80 0 -80 65 0 c63 0 67 2 127 50 34 28 72 50 85 50 23 0 23 2 23 105 l0 105
-45 0 -45 0 0 -95z"/>
<path d="M3890 2660 l0 -50 35 0 35 0 0 50 0 50 -35 0 -35 0 0 -50z"/>
<path d="M80 2655 l0 -45 50 0 50 0 0 45 0 45 -50 0 -50 0 0 -45z"/>
<path d="M322 2658 c2 -25 8 -34 26 -36 19 -3 22 1 22 32 0 32 -3 36 -26 36
-23 0 -25 -3 -22 -32z"/>
<path d="M4100 2650 l0 -40 45 0 45 0 0 40 0 40 -45 0 -45 0 0 -40z"/>
<path d="M432 2632 c4 -27 1 -47 -8 -59 -7 -10 -14 -21 -14 -25 0 -8 193 -148
204 -148 3 0 6 12 6 26 0 14 4 33 9 43 8 14 -7 33 -82 102 -121 112 -121 112
-115 61z"/>
<path d="M3784 2622 c-28 -26 -72 -65 -99 -87 l-48 -40 14 -49 14 -50 35 30
c19 17 55 45 80 62 96 67 97 68 76 91 -13 14 -16 28 -11 49 10 46 -6 45 -61
-6z"/>
<path d="M188 2593 c-27 -7 -30 -34 -7 -60 13 -12 25 -23 28 -23 11 0 48 65
44 78 -5 12 -31 14 -65 5z"/>
<path d="M4014 2579 c-3 -6 5 -22 18 -36 22 -22 28 -23 47 -12 11 8 21 24 21
36 0 20 -5 23 -39 23 -22 0 -43 -5 -47 -11z"/>
<path d="M291 2504 c-12 -15 -20 -32 -18 -38 3 -11 196 -145 210 -146 4 0 7 6
7 14 0 8 9 21 20 29 19 13 19 15 3 30 -25 22 -175 128 -189 134 -6 2 -21 -8
-33 -23z"/>
<path d="M3901 2502 c-19 -15 -145 -100 -280 -188 -243 -160 -264 -179 -242
-213 8 -12 22 -6 78 31 37 25 100 63 138 84 39 20 88 49 110 64 22 15 65 40
95 55 50 25 200 130 200 140 0 7 -51 55 -58 55 -4 -1 -22 -13 -41 -28z"/>
<path d="M3210 2240 l0 -270 40 0 40 0 0 270 0 270 -40 0 -40 0 0 -270z"/>
<path d="M1000 2395 l0 -105 35 0 35 0 0 105 0 105 -35 0 -35 0 0 -105z"/>
<path d="M1090 2365 l0 -95 35 0 35 0 0 95 0 95 -35 0 -35 0 0 -95z"/>
<path d="M3110 2190 c0 -173 -4 -270 -10 -270 -5 0 -10 25 -10 55 l0 55 -35 0
-35 0 0 -85 0 -85 125 0 125 0 0 30 c0 29 -2 30 -45 30 l-45 0 0 270 0 270
-35 0 -35 0 0 -270z"/>
<path d="M680 2413 c-10 -36 -9 -39 22 -66 18 -15 57 -42 85 -58 29 -17 55
-34 58 -40 13 -19 23 -7 27 30 3 34 0 42 -24 55 -14 9 -53 39 -86 66 -33 28
-62 50 -65 50 -4 0 -11 -17 -17 -37z"/>
<path d="M3508 2403 c-32 -25 -58 -52 -58 -60 0 -7 -8 -13 -17 -13 -10 -1 -28
-9 -41 -20 -18 -15 -23 -27 -20 -55 l3 -36 105 71 c58 40 109 76 114 80 12 12
-2 80 -17 80 -7 -1 -38 -22 -69 -47z"/>
<path d="M3020 2250 l0 -170 35 0 35 0 0 170 0 170 -35 0 -35 0 0 -170z"/>
<path d="M1190 2340 l0 -70 30 0 30 0 0 70 0 70 -30 0 -30 0 0 -70z"/>
<path d="M200 2360 l0 -40 45 0 45 0 0 40 0 40 -45 0 -45 0 0 -40z"/>
<path d="M3970 2360 l0 -40 40 0 40 0 0 40 0 40 -40 0 -40 0 0 -40z"/>
<path d="M556 2345 c-17 -46 -7 -61 72 -105 128 -72 188 -107 216 -125 l26
-17 0 34 c0 34 -5 38 -138 126 -160 105 -167 109 -176 87z"/>
<path d="M1290 2110 l0 -250 30 0 30 0 0 250 0 250 -30 0 -30 0 0 -250z"/>
<path d="M2930 2110 l0 -250 30 0 30 0 0 250 0 250 -30 0 -30 0 0 -250z"/>
<path d="M2830 2045 l0 -285 30 0 30 0 0 285 0 285 -30 0 -30 0 0 -285z"/>
<path d="M1380 2070 l0 -240 -100 0 -100 0 0 -40 0 -40 135 0 135 0 0 280 0
280 -35 0 -35 0 0 -240z"/>
<path d="M2720 2130 l0 -170 35 0 35 0 0 170 0 170 -35 0 -35 0 0 -170z"/>
<path d="M4020 2260 l0 -40 65 0 65 0 0 40 0 40 -65 0 -65 0 0 -40z"/>
<path d="M320 2282 c-33 -10 -38 -45 -8 -59 13 -6 49 -15 80 -21 65 -12 104
-36 113 -70 3 -12 17 -27 31 -32 34 -13 234 -13 234 0 0 6 -3 10 -8 10 -4 0
-77 38 -162 85 -159 88 -216 106 -280 87z"/>
<path d="M3795 2269 c-22 -12 -51 -29 -65 -38 -14 -9 -56 -32 -93 -51 -37 -19
-82 -47 -100 -62 l-32 -27 103 -1 102 0 0 36 c0 32 4 37 45 55 25 11 78 23
118 26 75 6 107 22 107 53 0 36 -123 42 -185 9z"/>
<path d="M132 2253 c3 -26 7 -28 51 -31 46 -3 47 -3 47 27 0 30 -1 31 -51 31
-49 0 -50 -1 -47 -27z"/>
<path d="M1490 2240 c0 -39 1 -40 35 -40 34 0 35 1 35 40 0 39 -1 40 -35 40
-34 0 -35 -1 -35 -40z"/>
<path d="M887 2128 c-2 -86 -6 -125 -11 -110 -8 22 -10 22 -169 20 -136 -3
-161 -5 -170 -20 -8 -12 -7 -21 2 -32 19 -23 361 -24 361 -1 0 10 10 15 30 15
l30 0 0 130 0 130 -35 0 -34 0 -4 -132z"/>
<path d="M1090 2125 l0 -115 35 0 35 0 0 115 0 115 -35 0 -35 0 0 -115z"/>
<path d="M2630 2205 l0 -35 -70 0 -70 0 0 -45 0 -45 70 0 c56 0 70 -3 70 -15
0 -12 -17 -15 -95 -15 l-95 0 0 -40 0 -40 95 0 95 0 0 -50 c0 -49 1 -50 30
-50 l30 0 0 185 0 185 -30 0 c-28 0 -30 -3 -30 -35z"/>
<path d="M980 2115 c0 -70 -4 -115 -10 -115 -6 0 -10 -28 -10 -65 l0 -65 140
0 140 0 0 45 c0 38 -3 45 -20 45 -13 0 -20 -7 -20 -20 0 -20 -5 -21 -92 -18
l-93 3 -3 38 c-3 34 -1 37 22 37 l26 0 0 115 0 115 -40 0 -40 0 0 -115z"/>
<path d="M1590 2175 c0 -43 1 -45 30 -45 29 0 30 2 30 45 0 43 -1 45 -30 45
-29 0 -30 -2 -30 -45z"/>
<path d="M1180 2100 l0 -90 35 0 35 0 0 90 0 90 -35 0 -35 0 0 -90z"/>
<path d="M3760 2125 l0 -35 85 0 85 0 0 35 0 35 -85 0 -85 0 0 -35z"/>
<path d="M360 2125 c0 -23 3 -25 50 -25 28 0 50 4 50 9 0 17 -43 41 -72 41
-23 0 -28 -4 -28 -25z"/>
<path d="M1680 2110 l0 -40 45 0 45 0 0 40 0 40 -45 0 -45 0 0 -40z"/>
<path d="M1490 1690 c0 -433 0 -440 -20 -440 -18 0 -20 7 -20 65 l0 65 -40 0
-40 0 0 -80 0 -80 135 0 135 0 0 35 c0 34 -1 35 -40 35 l-40 0 0 420 0 420
-35 0 -35 0 0 -440z"/>
<path d="M1790 2080 l0 -30 -65 0 c-51 0 -65 3 -65 15 0 10 -11 15 -35 15
l-35 0 0 -175 0 -175 35 0 35 0 0 115 0 115 100 0 100 0 0 75 0 75 -35 0 c-32
0 -35 -2 -35 -30z"/>
<path d="M400 2020 l0 -50 45 0 45 0 0 50 0 50 -45 0 -45 0 0 -50z"/>
<path d="M3780 2015 l0 -45 40 0 40 0 0 45 0 45 -40 0 -40 0 0 -45z"/>
<path d="M270 2010 l0 -40 40 0 40 0 0 40 0 40 -40 0 -40 0 0 -40z"/>
<path d="M3360 2010 l0 -40 195 0 195 0 0 40 0 40 -195 0 -195 0 0 -40z"/>
<path d="M3910 2010 l0 -40 40 0 40 0 0 40 0 40 -40 0 -40 0 0 -40z"/>
<path d="M4020 2005 l0 -45 45 0 45 0 0 45 0 45 -45 0 -45 0 0 -45z"/>
<path d="M180 2004 c0 -34 1 -35 33 -32 28 3 32 7 35 36 3 31 2 32 -32 32 -35
0 -36 -1 -36 -36z"/>
<path d="M1890 1930 l0 -80 30 0 30 0 0 80 0 80 -30 0 -30 0 0 -80z"/>
<path d="M2320 1935 l0 -75 35 0 35 0 0 75 0 75 -35 0 -35 0 0 -75z"/>
<path d="M3490 1905 l0 -45 125 0 125 0 0 45 0 45 -125 0 -125 0 0 -45z"/>
<path d="M3800 1905 l0 -45 40 0 40 0 0 45 0 45 -40 0 -40 0 0 -45z"/>
<path d="M380 1895 l0 -45 50 0 50 0 0 45 0 45 -50 0 -50 0 0 -45z"/>
<path d="M1690 1900 l0 -40 85 0 85 0 0 40 0 40 -85 0 -85 0 0 -40z"/>
<path d="M3360 1900 c0 -39 1 -40 35 -40 34 0 35 1 35 40 0 39 -1 40 -35 40
-34 0 -35 -1 -35 -40z"/>
<path d="M850 1890 c0 -39 1 -40 35 -40 34 0 35 1 35 40 0 39 -1 40 -35 40
-34 0 -35 -1 -35 -40z"/>
<path d="M2440 1900 l0 -30 70 0 70 0 0 30 0 30 -70 0 -70 0 0 -30z"/>
<path d="M2720 1570 l0 -361 73 5 c39 2 78 5 85 5 7 1 12 14 12 31 0 25 -4 30
-25 30 -18 0 -25 -5 -25 -20 0 -13 -7 -20 -20 -20 -20 0 -20 7 -20 345 l0 345
-40 0 -40 0 0 -360z"/>
<path d="M512 1893 l3 -28 153 -3 152 -3 0 31 0 30 -156 0 -155 0 3 -27z"/>
<path d="M1090 1795 c0 -43 1 -45 30 -45 29 0 30 2 30 45 0 43 -1 45 -30 45
-29 0 -30 -2 -30 -45z"/>
<path d="M3890 1795 l0 -45 65 0 65 0 0 45 0 45 -65 0 -65 0 0 -45z"/>
<path d="M280 1795 c0 -33 2 -35 35 -35 33 0 35 2 35 35 0 33 -2 35 -35 35
-33 0 -35 -2 -35 -35z"/>
<path d="M2320 1735 l0 -95 90 0 90 0 0 40 0 40 -55 0 c-30 0 -55 5 -55 10 0
6 25 10 55 10 l55 0 0 45 0 45 -90 0 -90 0 0 -95z"/>
<path d="M2520 1785 l0 -45 55 0 c42 0 55 -3 55 -15 0 -11 -12 -15 -50 -15
l-50 0 0 -40 0 -40 55 0 c48 0 55 -2 55 -20 0 -13 -7 -20 -20 -20 -18 0 -20
-7 -20 -75 l0 -75 40 0 40 0 0 195 0 195 -80 0 -80 0 0 -45z"/>
<path d="M2920 1780 l0 -50 40 0 40 0 0 50 0 50 -40 0 -40 0 0 -50z"/>
<path d="M3050 1790 c0 -39 1 -40 35 -40 34 0 35 1 35 40 0 39 -1 40 -35 40
-34 0 -35 -1 -35 -40z"/>
<path d="M3510 1785 l0 -45 120 0 120 0 0 45 0 45 -120 0 -120 0 0 -45z"/>
<path d="M510 1780 l0 -40 130 0 130 0 0 40 0 40 -130 0 -130 0 0 -40z"/>
<path d="M790 1780 l0 -40 105 0 c98 0 105 -1 105 -20 0 -19 -7 -20 -100 -20
l-100 0 0 -35 0 -35 130 0 130 0 0 95 0 95 -135 0 -135 0 0 -40z"/>
<path d="M1680 1785 c0 -32 2 -35 30 -35 28 0 30 -3 30 -35 0 -31 3 -35 25
-35 24 0 25 -2 25 -70 l0 -70 -35 0 -35 0 0 -154 c0 -131 2 -155 16 -160 9 -3
54 -6 100 -6 l84 0 0 80 c0 79 0 80 25 80 23 0 25 -4 25 -40 0 -39 1 -40 35
-40 34 0 35 1 35 40 0 38 2 40 30 40 l30 0 0 180 0 180 -35 0 -35 0 0 -125 0
-125 -80 0 -80 0 0 100 0 100 -30 0 c-27 0 -30 3 -30 30 0 23 4 30 20 30 16 0
20 7 20 35 l0 35 -85 0 -85 0 0 -35z m170 -420 c0 -88 -1 -95 -20 -95 -19 0
-20 7 -20 95 0 88 1 95 20 95 19 0 20 -7 20 -95z"/>
<path d="M3220 1775 l0 -35 130 0 130 0 0 35 0 35 -130 0 -130 0 0 -35z"/>
<path d="M1880 1740 c0 -53 2 -60 20 -60 17 0 20 -7 20 -40 l0 -40 45 0 45 0
0 45 c0 45 0 45 -35 45 l-35 0 0 55 c0 54 0 55 -30 55 l-30 0 0 -60z"/>
<path d="M2160 1630 l0 -110 190 0 190 0 0 40 0 40 -140 0 -140 0 0 70 0 70
-50 0 -50 0 0 -110z"/>
<path d="M550 1660 l0 -50 40 0 40 0 0 50 0 50 -40 0 -40 0 0 -50z"/>
<path d="M1090 1670 l0 -40 80 0 80 0 0 40 0 40 -80 0 -80 0 0 -40z"/>
<path d="M1280 1665 l0 -45 45 0 45 0 0 -80 0 -80 45 0 45 0 0 125 0 125 -90
0 -90 0 0 -45z"/>
<path d="M3640 1665 l0 -45 135 0 135 0 0 45 0 45 -135 0 -135 0 0 -45z"/>
<path d="M670 1665 c0 -35 0 -35 45 -35 45 0 45 0 45 35 0 35 0 35 -45 35 -45
0 -45 0 -45 -35z"/>
<path d="M1580 1515 l0 -185 30 0 30 0 0 150 0 150 45 0 c45 0 45 0 45 35 l0
35 -75 0 -75 0 0 -185z"/>
<path d="M2820 1515 c0 -158 2 -185 15 -185 13 0 15 27 15 185 0 158 -2 185
-15 185 -13 0 -15 -27 -15 -185z"/>
<path d="M2930 1665 c0 -30 3 -35 24 -35 17 0 26 7 30 25 8 33 1 45 -30 45
-21 0 -24 -5 -24 -35z"/>
<path d="M3020 1665 l0 -35 54 0 55 0 3 -52 3 -53 68 -3 c65 -3 67 -4 67 -30
0 -15 3 -44 6 -64 6 -36 8 -38 45 -38 35 0 39 3 39 25 0 14 5 25 10 25 6 0 10
18 10 39 0 25 5 41 15 45 8 3 15 17 15 31 l0 25 -110 0 -109 0 -3 58 -3 57
-82 3 -83 3 0 -36z m330 -165 c0 -15 -7 -20 -25 -20 -18 0 -25 5 -25 20 0 15
7 20 25 20 18 0 25 -5 25 -20z"/>
<path d="M3220 1660 l0 -30 130 0 130 0 0 30 0 30 -130 0 -130 0 0 -30z"/>
<path d="M3530 1660 c0 -28 3 -30 35 -30 32 0 35 2 35 30 0 28 -3 30 -35 30
-32 0 -35 -2 -35 -30z"/>
<path d="M382 1653 c3 -27 6 -28 66 -31 l62 -3 0 31 0 30 -66 0 -65 0 3 -27z"/>
<path d="M700 1560 l0 -40 75 0 75 0 0 40 0 40 -75 0 -75 0 0 -40z"/>
<path d="M880 1555 l0 -45 135 0 135 0 0 45 0 45 -135 0 -135 0 0 -45z"/>
<path d="M2930 1555 l0 -45 85 0 85 0 0 45 0 45 -85 0 -85 0 0 -45z"/>
<path d="M3470 1555 l0 -45 50 0 50 0 0 45 0 45 -50 0 -50 0 0 -45z"/>
<path d="M3620 1545 l0 -55 55 0 55 0 0 55 0 55 -55 0 -55 0 0 -55z m73 18
c-7 -2 -21 -2 -30 0 -10 3 -4 5 12 5 17 0 24 -2 18 -5z"/>
<path d="M1180 1555 l0 -35 85 0 85 0 0 35 0 35 -85 0 -85 0 0 -35z"/>
<path d="M550 1535 l0 -45 50 0 50 0 0 45 0 45 -50 0 -50 0 0 -45z"/>
<path d="M690 1445 l0 -45 55 0 55 0 0 45 0 45 -55 0 -55 0 0 -45z"/>
<path d="M830 1450 l0 -40 155 0 155 0 0 40 0 40 -155 0 -155 0 0 -40z"/>
<path d="M3120 1445 l0 -45 60 0 60 0 0 45 0 45 -60 0 -60 0 0 -45z"/>
<path d="M3390 1445 l0 -45 95 0 95 0 0 45 0 45 -95 0 -95 0 0 -45z"/>
<path d="M3860 1440 l0 -50 45 0 45 0 0 50 0 50 -45 0 -45 0 0 -50z"/>
<path d="M1180 1445 l0 -35 80 0 80 0 0 35 0 35 -80 0 -80 0 0 -35z"/>
<path d="M2240 1445 l0 -35 100 0 c93 0 100 -1 100 -20 0 -15 -7 -20 -25 -20
-22 0 -25 -4 -25 -35 l0 -35 85 0 85 0 0 35 c0 33 -2 35 -35 35 l-35 0 0 55 0
55 -125 0 -125 0 0 -35z"/>
<path d="M2980 1445 l0 -35 50 0 50 0 0 35 0 35 -50 0 -50 0 0 -35z"/>
<path d="M640 1340 l0 -50 115 0 115 0 0 50 0 50 -115 0 -115 0 0 -50z"/>
<path d="M3650 1345 l0 -45 50 0 50 0 0 45 0 45 -50 0 -50 0 0 -45z"/>
<path d="M1060 1335 l0 -45 135 0 135 0 0 45 0 45 -135 0 -135 0 0 -45z"/>
<path d="M3240 1340 l0 -40 120 0 120 0 0 40 0 40 -120 0 -120 0 0 -40z"/>
<path d="M3510 1340 l0 -40 55 0 55 0 0 40 0 40 -55 0 -55 0 0 -40z"/>
<path d="M568 1362 c-11 -2 -18 -13 -18 -28 0 -20 5 -24 30 -24 26 0 30 4 30
28 0 28 -7 32 -42 24z"/>
<path d="M890 1330 l0 -40 80 0 80 0 0 40 0 40 -80 0 -80 0 0 -40z"/>
<path d="M2250 1300 l0 -70 -30 0 -30 0 0 -85 0 -85 30 0 c30 0 30 1 30 55 l0
55 35 0 35 0 0 -55 c0 -30 5 -55 10 -55 6 0 10 -28 10 -65 0 -65 0 -65 29 -65
l28 0 -5 115 -5 115 77 0 76 0 0 -75 0 -75 45 0 45 0 0 55 c0 54 1 55 29 55
16 0 31 6 35 15 4 13 -7 15 -69 15 l-75 0 0 35 0 35 -125 0 -125 0 0 75 c0 73
-1 75 -25 75 -24 0 -25 -2 -25 -70z"/>
<path d="M2970 1335 l0 -35 115 0 115 0 0 35 0 35 -115 0 -115 0 0 -35z"/>
<path d="M2600 1295 l0 -65 45 0 45 0 0 65 0 65 -45 0 -45 0 0 -65z"/>
<path d="M770 1225 l0 -45 150 0 150 0 0 45 0 45 -150 0 -150 0 0 -45z"/>
<path d="M1090 1220 l0 -40 95 0 95 0 0 40 0 40 -95 0 -95 0 0 -40z"/>
<path d="M3020 1225 l0 -35 205 0 205 0 0 35 0 35 -205 0 -205 0 0 -35z"/>
<path d="M3470 1215 c0 -33 2 -35 35 -35 33 0 35 2 35 35 0 33 -2 35 -35 35
-33 0 -35 -2 -35 -35z"/>
<path d="M1930 1195 l0 -35 85 0 85 0 0 35 0 35 -85 0 -85 0 0 -35z"/>
<path d="M1380 1080 l0 -110 40 0 40 0 0 110 0 110 -40 0 -40 0 0 -110z"/>
<path d="M1480 980 l0 -200 40 0 40 0 0 200 0 200 -40 0 -40 0 0 -200z"/>
<path d="M1590 1025 l0 -155 50 0 50 0 0 155 0 155 -50 0 -50 0 0 -155z m70 0
c0 -77 -4 -125 -10 -125 -6 0 -10 48 -10 125 0 77 4 125 10 125 6 0 10 -48 10
-125z"/>
<path d="M2830 1090 l0 -90 -45 0 -45 0 0 -55 0 -55 35 0 c35 0 35 0 35 -45
l0 -45 40 0 40 0 0 50 c0 47 -2 50 -25 50 -22 0 -25 4 -25 40 0 38 2 40 30 40
l30 0 0 100 0 100 -35 0 -35 0 0 -90z"/>
<path d="M1730 1105 l0 -65 65 0 c58 0 65 -2 65 -20 0 -17 -7 -20 -40 -20
l-40 0 0 -85 0 -85 49 0 49 0 4 -50 3 -50 -52 0 -53 0 0 -90 0 -90 -30 0 c-28
0 -30 -3 -30 -35 l0 -35 70 0 70 0 0 -70 0 -70 35 0 35 0 0 110 0 110 -35 0
-35 0 0 75 0 75 35 0 35 0 0 -50 c0 -49 1 -50 30 -50 l30 0 0 164 0 165 -27 3
c-26 3 -28 7 -31 56 -3 50 -4 52 -33 52 -29 0 -29 0 -29 60 l0 60 -70 0 -70 0
0 -65z m204 -203 c3 -5 2 -18 -1 -30 -4 -18 -13 -22 -49 -22 -40 0 -44 2 -44
24 0 21 5 25 38 29 20 2 40 4 44 5 4 1 9 -2 12 -6z"/>
<path d="M2720 1110 l0 -60 35 0 35 0 0 60 0 60 -35 0 -35 0 0 -60z"/>
<path d="M3300 1125 l0 -45 85 0 85 0 0 45 0 45 -85 0 -85 0 0 -45z"/>
<path d="M820 1125 l0 -35 75 0 75 0 0 35 0 35 -75 0 -75 0 0 -35z"/>
<path d="M990 1125 l0 -35 75 0 75 0 0 35 0 35 -75 0 -75 0 0 -35z"/>
<path d="M1235 1140 c-11 -5 -51 -37 -89 -72 l-69 -63 27 -14 c25 -14 28 -13
64 24 l37 38 3 -57 3 -56 59 0 60 0 0 60 0 60 -62 0 -63 0 37 22 c38 22 53 42
42 59 -6 11 -22 11 -49 -1z"/>
<path d="M2980 1133 c1 -10 20 -31 43 -48 l42 -30 -72 -3 -73 -3 0 -54 0 -55
65 0 65 0 0 -40 0 -40 40 0 40 0 0 40 c0 38 -2 40 -30 40 -29 0 -30 1 -30 51
l0 50 31 -23 c17 -13 37 -27 45 -33 10 -7 20 -4 35 11 l21 21 -84 66 c-57 46
-92 67 -110 67 -20 0 -28 -5 -28 -17z"/>
<path d="M3220 1120 c0 -23 4 -30 20 -30 16 0 20 7 20 30 0 23 -4 30 -20 30
-16 0 -20 -7 -20 -30z"/>
<path d="M950 1010 l0 -40 40 0 40 0 0 40 0 40 -40 0 -40 0 0 -40z"/>
<path d="M1980 1015 l0 -35 60 0 60 0 0 35 0 35 -60 0 -60 0 0 -35z"/>
<path d="M3250 1015 c0 -34 1 -35 40 -35 39 0 40 1 40 35 0 34 -1 35 -40 35
-39 0 -40 -1 -40 -35z"/>
<path d="M740 970 l0 -50 65 0 65 0 0 50 0 50 -65 0 -65 0 0 -50z"/>
<path d="M2420 945 l0 -75 50 0 50 0 0 75 0 75 -50 0 -50 0 0 -75z"/>
<path d="M3410 965 l0 -45 60 0 60 0 0 45 0 45 -60 0 -60 0 0 -45z"/>
<path d="M2630 925 c0 -73 -1 -75 -25 -75 -24 0 -25 3 -25 55 0 42 -3 55 -15
55 -12 0 -15 -16 -15 -85 0 -50 4 -85 10 -85 6 0 10 -25 10 -55 0 -54 0 -55
30 -55 30 0 30 1 30 55 0 30 3 55 8 55 4 0 17 3 30 6 20 6 22 3 22 -40 l0 -46
50 0 50 0 0 50 0 50 -50 0 -50 0 0 95 0 95 -30 0 -30 0 0 -75z"/>
<path d="M2170 940 l0 -40 40 0 40 0 0 40 0 40 -40 0 -40 0 0 -40z"/>
<path d="M3270 895 c0 -45 0 -45 35 -45 35 0 35 0 35 45 0 45 0 45 -35 45 -35
0 -35 0 -35 -45z"/>
<path d="M930 890 l0 -40 45 0 45 0 0 40 0 40 -45 0 -45 0 0 -40z"/>
<path d="M1130 895 c0 -34 1 -35 40 -35 39 0 40 1 40 35 0 34 -1 35 -40 35
-39 0 -40 -1 -40 -35z"/>
<path d="M2930 860 l0 -50 35 0 35 0 0 50 0 50 -35 0 -35 0 0 -50z"/>
<path d="M1250 845 l0 -55 45 0 45 0 0 55 0 55 -45 0 -45 0 0 -55z"/>
<path d="M1380 840 l0 -60 35 0 35 0 0 60 0 60 -35 0 -35 0 0 -60z"/>
<path d="M2260 870 c0 -28 3 -30 35 -30 l35 0 0 -60 0 -60 30 0 c17 0 30 5 30
10 0 6 18 10 40 10 l40 0 0 -55 c0 -52 1 -55 25 -55 24 0 25 2 25 74 0 50 4
76 13 79 6 3 -20 6 -60 6 l-72 1 -3 53 -3 52 -67 3 -68 3 0 -31z"/>
<path d="M2040 815 c0 -45 0 -45 35 -45 35 0 35 0 35 45 0 45 0 45 -35 45 -35
0 -35 0 -35 -45z"/>
<path d="M1580 780 l0 -50 45 0 45 0 0 50 0 50 -45 0 -45 0 0 -50z"/>
<path d="M2170 795 c0 -22 4 -25 35 -25 31 0 35 3 35 25 0 22 -4 25 -35 25
-31 0 -35 -3 -35 -25z"/>
<path d="M3050 775 l0 -45 70 0 70 0 0 45 0 45 -70 0 -70 0 0 -45z"/>
<path d="M1080 775 l0 -35 65 0 65 0 0 35 0 35 -65 0 -65 0 0 -35z"/>
<path d="M2840 740 c0 -30 1 -30 55 -30 54 0 55 0 55 30 0 30 -1 30 -55 30
-54 0 -55 0 -55 -30z"/>
<path d="M2040 690 l0 -50 35 0 35 0 0 50 0 50 -35 0 -35 0 0 -50z"/>
<path d="M2180 690 l0 -50 65 0 65 0 0 50 0 50 -65 0 -65 0 0 -50z"/>
<path d="M1680 665 l0 -65 35 0 35 0 0 65 0 65 -35 0 -35 0 0 -65z"/>
<path d="M1350 645 l0 -55 105 0 105 0 0 55 0 55 -105 0 -105 0 0 -55z m140 0
c0 -18 -5 -25 -20 -25 -15 0 -20 7 -20 25 0 18 5 25 20 25 15 0 20 -7 20 -25z"/>
<path d="M2720 640 l0 -40 45 0 45 0 0 40 0 40 -45 0 -45 0 0 -40z"/>
<path d="M2320 635 c0 -33 -2 -35 -35 -35 -32 0 -35 -2 -35 -30 0 -28 3 -30
35 -30 l35 0 0 -100 0 -100 40 0 40 0 0 128 c0 70 -3 144 -6 165 -6 34 -9 37
-40 37 -32 0 -34 -2 -34 -35z"/>
<path d="M2630 540 c0 -39 1 -40 35 -40 34 0 35 1 35 40 0 39 -1 40 -35 40
-34 0 -35 -1 -35 -40z"/>
<path d="M2430 515 l0 -35 60 0 60 0 0 35 0 35 -60 0 -60 0 0 -35z"/>
<path d="M1590 495 l0 -45 40 0 40 0 0 45 0 45 -40 0 -40 0 0 -45z"/>
<path d="M2030 480 l0 -60 40 0 40 0 0 60 0 60 -40 0 -40 0 0 -60z"/>
</g>
</svg>
